<svg xmlns="http://www.w3.org/2000/svg" xmlns:xlink="http://www.w3.org/1999/xlink" width="500" zoomAndPan="magnify" viewBox="0 0 375 374.999991" height="500" preserveAspectRatio="xMidYMid meet" version="1.0"><defs><g/><clipPath id="d2574f5d5b"><path d="M 110.246094 179.765625 L 132.28125 179.765625 L 132.28125 241.878906 L 110.246094 241.878906 Z M 110.246094 179.765625 " clip-rule="nonzero"/></clipPath><clipPath id="860d0277a0"><path d="M 242.714844 173.070312 L 264.753906 173.070312 L 264.753906 235.183594 L 242.714844 235.183594 Z M 242.714844 173.070312 " clip-rule="nonzero"/></clipPath></defs><rect x="-37.5" width="450" fill="#ffffff" y="-37.499999" height="449.999989" fill-opacity="1"/><rect x="-37.5" width="450" fill="#000000" y="-37.499999" height="449.999989" fill-opacity="1"/><g fill="#ffffff" fill-opacity="1"><g transform="translate(110.245236, 197.298111)"><g><path d="M 2.203125 0 C 0.734375 0 0 -0.734375 0 -2.203125 L 0 -108.171875 C 0 -109.640625 0.734375 -110.375 2.203125 -110.375 L 19.875 -110.375 C 21.34375 -110.375 22.078125 -109.640625 22.078125 -108.171875 L 22.078125 -66.234375 L 132.453125 -66.234375 L 132.453125 -108.171875 C 132.453125 -109.640625 133.191406 -110.375 134.671875 -110.375 L 152.328125 -110.375 C 153.796875 -110.375 154.53125 -109.640625 154.53125 -108.171875 L 154.53125 -2.203125 C 154.53125 -0.734375 153.796875 0 152.328125 0 L 134.671875 0 C 133.191406 0 132.453125 -0.734375 132.453125 -2.203125 L 132.453125 -44.15625 L 22.078125 -44.15625 L 22.078125 -2.203125 C 22.078125 -0.734375 21.34375 0 19.875 0 Z M 2.203125 0 "/></g></g></g><g fill="#ffffff" fill-opacity="1"><g transform="translate(110.245236, 307.526996)"><g><path d="M 75.28125 -1.328125 L 9.265625 -41.71875 C 3.085938 -45.550781 0 -51.070312 0 -58.28125 L 0 -108.171875 C 0 -109.640625 0.734375 -110.375 2.203125 -110.375 L 19.875 -110.375 C 21.34375 -110.375 22.078125 -109.640625 22.078125 -108.171875 L 22.078125 -61.59375 C 22.078125 -60.125 22.664062 -59.019531 23.84375 -58.28125 L 76.171875 -26.484375 C 76.898438 -26.046875 77.632812 -26.046875 78.375 -26.484375 L 130.6875 -58.28125 C 131.863281 -59.019531 132.453125 -60.125 132.453125 -61.59375 L 132.453125 -108.171875 C 132.453125 -109.640625 133.191406 -110.375 134.671875 -110.375 L 152.328125 -110.375 C 153.796875 -110.375 154.53125 -109.640625 154.53125 -108.171875 L 154.53125 -58.28125 C 154.53125 -51.070312 151.441406 -45.550781 145.265625 -41.71875 L 79.25 -1.328125 C 77.925781 -0.734375 76.601562 -0.734375 75.28125 -1.328125 Z M 75.28125 -1.328125 "/></g></g></g><g clip-path="url(#d2574f5d5b)"><path fill="#ffffff" d="M 110.246094 179.765625 L 132.28125 179.765625 L 132.28125 241.910156 L 110.246094 241.910156 Z M 110.246094 179.765625 " fill-opacity="1" fill-rule="nonzero"/></g><g clip-path="url(#860d0277a0)"><path fill="#ffffff" d="M 242.714844 173.070312 L 264.753906 173.070312 L 264.753906 235.226562 L 242.714844 235.226562 Z M 242.714844 173.070312 " fill-opacity="1" fill-rule="nonzero"/></g></svg>